# xmcd CD database file
# Copyright (C) 1996 Ti Kan
#
# Track frame offsets:
#  187
#  16487
#  32137
#  54187
#  69712
#  87075
#  104100
#  130537
#  146737
#  162187
#  178387
#  197512
#
# Disc length: 2818 seconds
#
# Revision: 3
# Processed by: cddbd v1.4PL0 Copyright (c) Steve Scherf et al.
# Submitted via: mwyoung 1.0
#
DISCID=a60b000c
DTITLE=Luther "Guitar Junior" Johnson - I Want To Groove With You
DYEAR=1990
DGENRE=Blues
TTITLE0=Red Beans
TTITLE1=Can't Get Along With You
TTITLE2=I'm From Mississippi
TTITLE3=Luther's Boogie
TTITLE4=I Want To Groove With You
TTITLE5=Merry Christmas Baby
TTITLE6=Graveyard Dogs
TTITLE7=Who's That Come Walkin'
TTITLE8=Young Boy Blues
TTITLE9=Texas Cowboy
TTITLE10=Call Me Guitar Junior
TTITLE11=I'm Leaving Chicago
EXTD=
EXTT0=
EXTT1=
EXTT2=
EXTT3=
EXTT4=
EXTT5=
EXTT6=
EXTT7=
EXTT8=
EXTT9=
EXTT10=
EXTT11=
PLAYORDER=
